HIERARCHY
ROOT Hips
{
	OFFSET -0.001795 -0.223333 0.028219
	CHANNELS 6 Xposition Yposition Zposition Zrotation Yrotation Xrotation 
	JOINT LeftUpLeg
	{
		OFFSET 0.069520 -0.091406 -0.006815
		CHANNELS 3 Zrotation Yrotation Xrotation
		JOINT LeftLeg
		{
			OFFSET 0.034277 -0.375199 -0.004496
			CHANNELS 3 Zrotation Yrotation Xrotation
			JOINT LeftFoot
			{
				OFFSET -0.013596 -0.397961 -0.043693
				CHANNELS 3 Zrotation Yrotation Xrotation
				JOINT LeftToe
				{
					OFFSET 0.026358 -0.055791 0.119288
					CHANNELS 3 Zrotation Yrotation Xrotation
					End Site
					{
						OFFSET 0.000000 0.000000 0.000000
					}
				}
			}
		}
	}
	JOINT RightUpLeg
	{
		OFFSET -0.067670 -0.090522 -0.004320
		CHANNELS 3 Zrotation Yrotation Xrotation
		JOINT RightLeg
		{
			OFFSET -0.038290 -0.382569 -0.008850
			CHANNELS 3 Zrotation Yrotation Xrotation
			JOINT RightFoot
			{
				OFFSET 0.015774 -0.398415 -0.042312
				CHANNELS 3 Zrotation Yrotation Xrotation
				JOINT RightToe
				{
					OFFSET -0.025372 -0.048144 0.123348
					CHANNELS 3 Zrotation Yrotation Xrotation
					End Site
					{
						OFFSET 0.000000 0.000000 0.000000
					}
				}
			}
		}
	}
	JOINT Spine
	{
		OFFSET -0.002533 0.108963 -0.026696
		CHANNELS 3 Zrotation Yrotation Xrotation
		JOINT Spine1
		{
			OFFSET 0.005487 0.135180 0.001092
			CHANNELS 3 Zrotation Yrotation Xrotation
			JOINT Spine2
			{
				OFFSET 0.001457 0.052922 0.025425
				CHANNELS 3 Zrotation Yrotation Xrotation
				JOINT Neck
				{
					OFFSET -0.002778 0.213870 -0.042857
					CHANNELS 3 Zrotation Yrotation Xrotation
					JOINT Head
					{
						OFFSET 0.005152 0.064970 0.051349
						CHANNELS 3 Zrotation Yrotation Xrotation
						End Site
						{
							OFFSET 0.000000 0.000000 0.000000
						}
					}
				}
				JOINT LeftShoulder
				{
					OFFSET 0.078845 0.121749 -0.034090
					CHANNELS 3 Zrotation Yrotation Xrotation
					JOINT LeftArm
					{
						OFFSET 0.090977 0.030469 -0.008868
						CHANNELS 3 Zrotation Yrotation Xrotation
						JOINT LeftForeArm
						{
							OFFSET 0.259612 -0.012772 -0.027456
							CHANNELS 3 Zrotation Yrotation Xrotation
							JOINT LeftHand
							{
								OFFSET 0.249234 0.008986 -0.001171
								CHANNELS 3 Zrotation Yrotation Xrotation
								End Site
								{
									OFFSET 0.000000 0.000000 0.000000
								}
							}
						}
					}
				}
				JOINT RightShoulder
				{
					OFFSET -0.081759 0.118833 -0.038615
					CHANNELS 3 Zrotation Yrotation Xrotation
					JOINT RightArm
					{
						OFFSET -0.096012 0.032551 -0.009143
						CHANNELS 3 Zrotation Yrotation Xrotation
						JOINT RightForeArm
						{
							OFFSET -0.253742 -0.013329 -0.021401
							CHANNELS 3 Zrotation Yrotation Xrotation
							JOINT RightHand
							{
								OFFSET -0.255298 0.007772 -0.005559
								CHANNELS 3 Zrotation Yrotation Xrotation
								End Site
								{
									OFFSET 0.000000 0.000000 0.000000
								}
							}
						}
					}
				}
			}
		}
	}
}
MOTION
Frames: 5
Frame Time: 0.050000
0.226953 0.916965 -0.354499 -163.257838 77.297861 -164.108209 -4.067382 -3.702592 14.928123 -3.046686 -1.559829 -4.261342 4.999505 -0.682188 -0.724165 0.000000 0.000000 0.000000 11.365955 -3.629326 -27.347355 -23.528630 -8.738099 38.750401 11.504266 15.141712 -5.706534 0.000000 0.000000 0.000000 1.224306 -0.258936 4.778404 2.515275 -3.360199 -0.845425 -5.732738 3.087526 10.992023 5.510742 6.971672 -30.538802 0.000000 0.000000 0.000000 -24.869967 -41.572436 -7.878332 -39.973903 -14.349648 7.803118 -110.665887 -82.594580 84.209970 0.000000 0.000000 0.000000 27.347028 10.960294 29.761023 38.970859 30.544312 0.537797 -65.896617 66.029689 -33.412039 0.000000 0.000000 0.000000 
0.245303 0.915157 -0.376586 -167.342492 75.394269 -168.334410 -4.964804 -3.969508 15.666802 -3.426646 -1.504276 -2.759951 4.202863 -1.897199 -1.064416 0.000000 0.000000 0.000000 13.071185 -3.790035 -28.229801 -23.584271 -9.119570 38.790648 14.199718 19.000764 -4.981404 0.000000 0.000000 0.000000 0.984553 -0.330855 5.557912 3.363534 -3.561277 -1.395194 -5.940472 2.317228 10.699017 4.968611 7.087914 -29.906854 0.000000 0.000000 0.000000 -24.487615 -41.923031 -7.997685 -40.532719 -12.849686 7.499002 -109.079851 -82.024276 81.279362 0.000000 0.000000 0.000000 27.712160 10.689079 30.073893 38.345510 29.555440 0.029045 -65.762136 66.524845 -34.194343 0.000000 0.000000 0.000000 
0.263485 0.916068 -0.397935 -170.336191 74.334948 -170.883808 -6.174748 -4.081354 16.339470 -3.287582 -1.485968 -2.695463 3.682023 -1.690474 -0.336953 0.000000 0.000000 0.000000 13.926001 -3.774428 -28.444541 -20.245556 -9.571226 37.169719 14.437224 19.037439 -4.372393 0.000000 0.000000 0.000000 1.102097 -0.354751 5.700228 3.800563 -3.606838 -1.803498 -6.081114 1.703391 10.566240 3.960337 7.437865 -30.501609 0.000000 0.000000 0.000000 -24.705489 -40.904879 -9.004237 -40.539605 -11.858404 7.351384 -106.810038 -81.937746 79.356386 0.000000 0.000000 0.000000 28.033548 10.948130 30.674497 37.281010 28.988881 -0.435697 -67.194188 66.716081 -35.632165 0.000000 0.000000 0.000000 
0.281180 0.917420 -0.417500 -171.677152 73.536385 -170.979035 -7.505078 -3.929749 16.295030 -2.184752 -1.261555 -2.286865 2.706470 -2.019612 0.537448 0.000000 0.000000 0.000000 15.424782 -3.990526 -29.456342 -13.864213 -8.724903 31.502600 13.216802 16.732162 -1.435407 0.000000 0.000000 0.000000 1.976213 -0.362843 5.329782 4.407470 -4.136010 -1.482160 -6.925155 1.501746 8.666075 4.415439 7.124137 -30.128687 0.000000 0.000000 0.000000 -24.253098 -41.769781 -7.769469 -40.496201 -11.144092 7.014552 -117.947355 -84.232012 92.515607 0.000000 0.000000 0.000000 28.361710 11.480000 31.368227 35.900278 29.683656 -0.382983 -68.738822 67.362868 -37.505327 0.000000 0.000000 0.000000 
0.299485 0.919334 -0.436285 -171.450655 73.455748 -169.453734 -8.476537 -3.495842 15.549302 -0.618066 -0.929804 -1.261379 0.727844 -2.535942 2.122124 0.000000 0.000000 0.000000 16.505625 -3.706346 -29.301679 -8.773352 -7.305905 25.554482 11.392629 14.141081 0.265469 0.000000 0.000000 0.000000 3.536380 -0.446105 4.800905 3.374171 -4.179581 -0.709153 -6.552905 1.720538 7.768305 3.948322 7.385941 -32.169940 0.000000 0.000000 0.000000 -23.633642 -41.758587 -6.675689 -40.018434 -12.424011 6.902666 -138.530605 -84.836057 114.589592 0.000000 0.000000 0.000000 29.331909 11.561721 31.994090 32.674722 32.013227 -0.397702 -68.215652 65.386685 -36.274390 0.000000 0.000000 0.000000 
